<mxfile host="65bd71144e">
    <diagram id="KHN87y3OLuKudrtNCYsX" name="Page-1">
        <mxGraphModel dx="640" dy="548" grid="1" gridSize="10" guides="1" tooltips="1" connect="1" arrows="1" fold="1" page="1" pageScale="1" pageWidth="850" pageHeight="1100" math="0" shadow="0">
            <root>
                <mxCell id="0"/>
                <mxCell id="1" parent="0"/>
                <mxCell id="2" value="User Interface" style="shape=folder;fontStyle=0;tabWidth=80;tabHeight=30;tabPosition=left;html=1;boundedLbl=1;fillColor=none;fontColor=#006EAF;strokeColor=#006EAF;" parent="1" vertex="1">
                    <mxGeometry x="150" y="40" width="150" height="80" as="geometry"/>
                </mxCell>
                <mxCell id="3" value="Service 1" style="shape=folder;fontStyle=0;tabWidth=80;tabHeight=30;tabPosition=left;html=1;boundedLbl=1;fillColor=none;fontColor=#006EAF;strokeColor=#006EAF;" parent="1" vertex="1">
                    <mxGeometry x="40" y="220" width="150" height="80" as="geometry"/>
                </mxCell>
                <mxCell id="4" value="Service 2" style="shape=folder;fontStyle=0;tabWidth=80;tabHeight=30;tabPosition=left;html=1;boundedLbl=1;fillColor=none;fontColor=#006EAF;strokeColor=#006EAF;" parent="1" vertex="1">
                    <mxGeometry x="240" y="220" width="150" height="80" as="geometry"/>
                </mxCell>
                <mxCell id="5" value="Database" style="shape=folder;fontStyle=0;tabWidth=80;tabHeight=30;tabPosition=left;html=1;boundedLbl=1;fillColor=none;fontColor=#006EAF;strokeColor=#006EAF;" parent="1" vertex="1">
                    <mxGeometry x="150" y="400" width="150" height="80" as="geometry"/>
                </mxCell>
                <mxCell id="7" value="&lt;span style=&quot;font-size: 12px;&quot;&gt;«access»&lt;/span&gt;" style="edgeStyle=none;html=1;endArrow=open;endSize=12;dashed=1;verticalAlign=bottom;fontColor=#006EAF;fillColor=#1ba1e2;strokeColor=#006EAF;labelBackgroundColor=none;" parent="1" source="2" target="3" edge="1">
                    <mxGeometry x="0.267" y="-26" width="160" relative="1" as="geometry">
                        <mxPoint x="115" y="120" as="sourcePoint"/>
                        <mxPoint x="115" y="160" as="targetPoint"/>
                        <mxPoint as="offset"/>
                    </mxGeometry>
                </mxCell>
                <mxCell id="8" value="&lt;span style=&quot;font-size: 12px;&quot;&gt;«access»&lt;/span&gt;" style="edgeStyle=none;html=1;endArrow=open;endSize=12;dashed=1;verticalAlign=bottom;fontColor=#006EAF;fillColor=#1ba1e2;strokeColor=#006EAF;labelBackgroundColor=none;" parent="1" source="3" target="5" edge="1">
                    <mxGeometry x="-0.2103" y="-39" width="160" relative="1" as="geometry">
                        <mxPoint x="125" y="130" as="sourcePoint"/>
                        <mxPoint x="125" y="170" as="targetPoint"/>
                        <mxPoint as="offset"/>
                    </mxGeometry>
                </mxCell>
                <mxCell id="9" value="&lt;span style=&quot;font-size: 12px;&quot;&gt;«access»&lt;/span&gt;" style="edgeStyle=none;html=1;endArrow=open;endSize=12;dashed=1;verticalAlign=bottom;fontColor=#006EAF;fillColor=#1ba1e2;strokeColor=#006EAF;labelBackgroundColor=none;" parent="1" source="4" target="5" edge="1">
                    <mxGeometry x="-0.08" y="31" width="160" relative="1" as="geometry">
                        <mxPoint x="125" y="250" as="sourcePoint"/>
                        <mxPoint x="125" y="290" as="targetPoint"/>
                        <mxPoint y="1" as="offset"/>
                    </mxGeometry>
                </mxCell>
                <mxCell id="10" value="Deployment Target" style="verticalAlign=top;align=left;shape=cube;size=10;direction=south;fontStyle=0;html=1;boundedLbl=1;spacingLeft=5;fontColor=#006EAF;fillColor=none;strokeColor=#006EAF;" parent="1" vertex="1">
                    <mxGeometry x="500" y="30" width="130" height="90" as="geometry"/>
                </mxCell>
                <mxCell id="12" value="&lt;span style=&quot;font-size: 12px;&quot;&gt;«deploy»&lt;/span&gt;" style="endArrow=open;startArrow=none;endFill=0;startFill=0;endSize=8;html=1;verticalAlign=bottom;dashed=1;labelBackgroundColor=none;fontColor=#006EAF;fillColor=#1ba1e2;strokeColor=#006EAF;" parent="1" source="2" target="10" edge="1">
                    <mxGeometry width="160" relative="1" as="geometry">
                        <mxPoint x="260" y="290" as="sourcePoint"/>
                        <mxPoint x="420" y="290" as="targetPoint"/>
                    </mxGeometry>
                </mxCell>
                <mxCell id="13" value="&lt;span style=&quot;font-size: 12px;&quot;&gt;«deploy»&lt;/span&gt;" style="endArrow=open;startArrow=none;endFill=0;startFill=0;endSize=8;html=1;verticalAlign=bottom;dashed=1;labelBackgroundColor=none;fontColor=#006EAF;fillColor=#1ba1e2;strokeColor=#006EAF;" parent="1" source="3" target="16" edge="1">
                    <mxGeometry width="160" relative="1" as="geometry">
                        <mxPoint x="176.1111111111111" y="130" as="sourcePoint"/>
                        <mxPoint x="291.1111111111111" y="220" as="targetPoint"/>
                        <Array as="points">
                            <mxPoint x="230" y="320"/>
                        </Array>
                    </mxGeometry>
                </mxCell>
                <mxCell id="15" value="&lt;span style=&quot;font-size: 12px;&quot;&gt;«deploy»&lt;/span&gt;" style="endArrow=open;startArrow=none;endFill=0;startFill=0;endSize=8;html=1;verticalAlign=bottom;dashed=1;labelBackgroundColor=none;fontColor=#006EAF;fillColor=#1ba1e2;strokeColor=#006EAF;" parent="1" source="4" target="20" edge="1">
                    <mxGeometry width="160" relative="1" as="geometry">
                        <mxPoint x="200" y="310.4347826086956" as="sourcePoint"/>
                        <mxPoint x="290" y="286.9565217391305" as="targetPoint"/>
                    </mxGeometry>
                </mxCell>
                <mxCell id="16" value="Deployment Target" style="verticalAlign=top;align=left;shape=cube;size=10;direction=south;fontStyle=0;html=1;boundedLbl=1;spacingLeft=5;fontColor=#006EAF;fillColor=none;strokeColor=#006EAF;" parent="1" vertex="1">
                    <mxGeometry x="500" y="280" width="130" height="80" as="geometry"/>
                </mxCell>
                <mxCell id="17" value="Deployment Target" style="verticalAlign=top;align=left;shape=cube;size=10;direction=south;fontStyle=0;html=1;boundedLbl=1;spacingLeft=5;fontColor=#006EAF;fillColor=none;strokeColor=#006EAF;" parent="1" vertex="1">
                    <mxGeometry x="500" y="400" width="130" height="80" as="geometry"/>
                </mxCell>
                <mxCell id="18" value="&lt;span style=&quot;font-size: 12px;&quot;&gt;«access»&lt;/span&gt;" style="edgeStyle=none;html=1;endArrow=open;endSize=12;dashed=1;verticalAlign=bottom;fontColor=#006EAF;fillColor=#1ba1e2;strokeColor=#006EAF;labelBackgroundColor=none;" parent="1" source="2" target="4" edge="1">
                    <mxGeometry x="0.32" y="36" width="160" relative="1" as="geometry">
                        <mxPoint x="207.5" y="130" as="sourcePoint"/>
                        <mxPoint x="152.5" y="210" as="targetPoint"/>
                        <mxPoint as="offset"/>
                    </mxGeometry>
                </mxCell>
                <mxCell id="19" value="&lt;span style=&quot;font-size: 12px;&quot;&gt;«deploy»&lt;/span&gt;" style="endArrow=open;startArrow=none;endFill=0;startFill=0;endSize=8;html=1;verticalAlign=bottom;dashed=1;labelBackgroundColor=none;fontColor=#006EAF;fillColor=#1ba1e2;strokeColor=#006EAF;" parent="1" source="5" target="17" edge="1">
                    <mxGeometry width="160" relative="1" as="geometry">
                        <mxPoint x="200" y="246.18644067796606" as="sourcePoint"/>
                        <mxPoint x="650" y="223.30508474576277" as="targetPoint"/>
                    </mxGeometry>
                </mxCell>
                <mxCell id="20" value="Deployment Target" style="verticalAlign=top;align=left;shape=cube;size=10;direction=south;fontStyle=0;html=1;boundedLbl=1;spacingLeft=5;fontColor=#006EAF;fillColor=none;strokeColor=#006EAF;" parent="1" vertex="1">
                    <mxGeometry x="500" y="160" width="130" height="80" as="geometry"/>
                </mxCell>
            </root>
        </mxGraphModel>
    </diagram>
</mxfile>